<svg id="Layer_1" data-name="Layer 1" xmlns="http://www.w3.org/2000/svg" xmlns:xlink="http://www.w3.org/1999/xlink" viewBox="0 0 240 120"><defs><style>.cls-1{fill:#40c0cb;}.cls-2{fill:url(#linear-gradient);}.cls-3{fill:#aee239;}.cls-4{fill:url(#linear-gradient-2);}.cls-5{fill:url(#linear-gradient-3);}.cls-6{fill:url(#linear-gradient-4);}.cls-7{fill:url(#linear-gradient-5);}.cls-8{fill:url(#linear-gradient-6);}.cls-9{fill:url(#linear-gradient-7);}.cls-10{fill:url(#linear-gradient-8);}.cls-11{fill:url(#linear-gradient-9);}.cls-12{fill:url(#linear-gradient-10);}.cls-13{fill:url(#linear-gradient-11);}.cls-14{fill:url(#linear-gradient-12);}.cls-15{fill:url(#linear-gradient-13);}.cls-16{fill:url(#linear-gradient-14);}.cls-17{fill:url(#linear-gradient-15);}.cls-18{fill:url(#linear-gradient-16);}.cls-19{fill:url(#linear-gradient-17);}.cls-20{fill:url(#linear-gradient-18);}.cls-21{fill:url(#linear-gradient-19);}.cls-22{fill:url(#linear-gradient-20);}.cls-23{fill:url(#linear-gradient-21);}.cls-24{fill:url(#linear-gradient-22);}.cls-25{fill:url(#linear-gradient-23);}.cls-26{fill:url(#linear-gradient-24);}.cls-27{fill:url(#linear-gradient-25);}.cls-28{fill:url(#linear-gradient-26);}.cls-29{fill:url(#linear-gradient-27);}.cls-30{fill:url(#linear-gradient-28);}.cls-31{fill:url(#linear-gradient-29);}.cls-32{fill:url(#linear-gradient-30);}.cls-33{fill:url(#linear-gradient-31);}.cls-34{fill:url(#linear-gradient-32);}</style><linearGradient id="linear-gradient" x1="31.45" y1="78.53" x2="155.17" y2="99.94" gradientUnits="userSpaceOnUse"><stop offset="0" stop-color="#aee239"/><stop offset="0.14" stop-color="#abdd38"/><stop offset="0.31" stop-color="#a1d035"/><stop offset="0.48" stop-color="#90b930"/><stop offset="0.66" stop-color="#79992a"/><stop offset="0.84" stop-color="#5b7021"/><stop offset="1" stop-color="#3d4719"/></linearGradient><linearGradient id="linear-gradient-2" x1="203.08" y1="60.38" x2="207.78" y2="60.38" gradientUnits="userSpaceOnUse"><stop offset="0" stop-color="gray"/><stop offset="0.2" stop-color="#adacab"/><stop offset="0.38" stop-color="#cecccb"/><stop offset="0.54" stop-color="#e2e0de"/><stop offset="0.64" stop-color="#e9e7e5"/><stop offset="0.76" stop-color="#e7e5e3"/><stop offset="0.82" stop-color="#dfdddb"/><stop offset="0.87" stop-color="#d1d0ce"/><stop offset="0.92" stop-color="#bebdbc"/><stop offset="0.96" stop-color="#a5a4a3"/><stop offset="0.99" stop-color="#878686"/><stop offset="1" stop-color="gray"/></linearGradient><linearGradient id="linear-gradient-3" x1="202.98" y1="31.03" x2="211.91" y2="31.03" xlink:href="#linear-gradient-2"/><linearGradient id="linear-gradient-4" x1="209.77" y1="48.27" x2="215.99" y2="48.27" xlink:href="#linear-gradient-2"/><linearGradient id="linear-gradient-5" x1="179.89" y1="26.17" x2="210.22" y2="26.17" gradientUnits="userSpaceOnUse"><stop offset="0" stop-color="gray"/><stop offset="0.06" stop-color="#979696"/><stop offset="0.16" stop-color="#b4b3b2"/><stop offset="0.26" stop-color="#cccac9"/><stop offset="0.38" stop-color="#dcdad9"/><stop offset="0.5" stop-color="#e6e4e2"/><stop offset="0.66" stop-color="#e9e7e5"/><stop offset="0.79" stop-color="#e6e4e2"/><stop offset="0.91" stop-color="#dbdad9"/><stop offset="1" stop-color="#ccc"/></linearGradient><linearGradient id="linear-gradient-6" x1="210.2" y1="19.35" x2="231.66" y2="19.35" xlink:href="#linear-gradient-2"/><linearGradient id="linear-gradient-7" x1="162.65" y1="47.28" x2="165.33" y2="47.28" xlink:href="#linear-gradient-2"/><linearGradient id="linear-gradient-8" x1="162.6" y1="30.59" x2="167.67" y2="30.59" xlink:href="#linear-gradient-2"/><linearGradient id="linear-gradient-9" x1="166.46" y1="40.39" x2="170" y2="40.39" xlink:href="#linear-gradient-2"/><linearGradient id="linear-gradient-10" x1="149.46" y1="27.82" x2="166.71" y2="27.82" xlink:href="#linear-gradient-5"/><linearGradient id="linear-gradient-11" x1="166.7" y1="23.94" x2="178.91" y2="23.94" xlink:href="#linear-gradient-2"/><linearGradient id="linear-gradient-12" x1="121.9" y1="54.36" x2="124.22" y2="54.36" xlink:href="#linear-gradient-2"/><linearGradient id="linear-gradient-13" x1="121.85" y1="39.88" x2="126.26" y2="39.88" xlink:href="#linear-gradient-2"/><linearGradient id="linear-gradient-14" x1="125.2" y1="48.38" x2="128.27" y2="48.38" xlink:href="#linear-gradient-2"/><linearGradient id="linear-gradient-15" x1="110.46" y1="37.48" x2="125.42" y2="37.48" xlink:href="#linear-gradient-5"/><linearGradient id="linear-gradient-16" x1="125.41" y1="34.12" x2="136" y2="34.12" xlink:href="#linear-gradient-2"/><linearGradient id="linear-gradient-17" x1="85.25" y1="60.12" x2="87.02" y2="60.12" xlink:href="#linear-gradient-2"/><linearGradient id="linear-gradient-18" x1="85.22" y1="49.08" x2="88.57" y2="49.08" xlink:href="#linear-gradient-2"/><linearGradient id="linear-gradient-19" x1="87.77" y1="55.56" x2="90.11" y2="55.56" xlink:href="#linear-gradient-2"/><linearGradient id="linear-gradient-20" x1="76.53" y1="47.25" x2="87.94" y2="47.25" xlink:href="#linear-gradient-5"/><linearGradient id="linear-gradient-21" x1="87.93" y1="44.68" x2="96.01" y2="44.68" xlink:href="#linear-gradient-2"/><linearGradient id="linear-gradient-22" x1="44.46" y1="120" x2="44.46" y2="120" xlink:href="#linear-gradient-2"/><linearGradient id="linear-gradient-23" x1="36.29" y1="90" x2="44.46" y2="90" xlink:href="#linear-gradient-2"/><linearGradient id="linear-gradient-24" x1="36.29" y1="120" x2="36.29" y2="120" xlink:href="#linear-gradient-2"/><linearGradient id="linear-gradient-25" x1="33.98" y1="55.26" x2="56.71" y2="55.26" xlink:href="#linear-gradient-2"/><linearGradient id="linear-gradient-26" x1="51.26" y1="89.5" x2="64.28" y2="89.5" gradientUnits="userSpaceOnUse"><stop offset="0" stop-color="gray"/><stop offset="0.02" stop-color="#8e8d8d"/><stop offset="0.07" stop-color="#aeaead"/><stop offset="0.12" stop-color="#c8c7c5"/><stop offset="0.18" stop-color="#dbd9d7"/><stop offset="0.24" stop-color="#e5e4e2"/><stop offset="0.3" stop-color="#e9e7e5"/><stop offset="0.61" stop-color="#e7e5e3"/><stop offset="0.72" stop-color="#e0dfdd"/><stop offset="0.8" stop-color="#d5d3d1"/><stop offset="0.87" stop-color="#c4c2c1"/><stop offset="0.92" stop-color="#aeadac"/><stop offset="0.97" stop-color="#939392"/><stop offset="1" stop-color="gray"/></linearGradient><linearGradient id="linear-gradient-27" x1="64.28" y1="120" x2="64.28" y2="120" xlink:href="#linear-gradient-26"/><linearGradient id="linear-gradient-28" x1="60.62" y1="120" x2="60.62" y2="120" xlink:href="#linear-gradient-26"/><linearGradient id="linear-gradient-29" x1="0" y1="33.64" x2="0" y2="33.64" xlink:href="#linear-gradient-5"/><linearGradient id="linear-gradient-30" x1="0" y1="45.66" x2="52.41" y2="45.66" xlink:href="#linear-gradient-5"/><linearGradient id="linear-gradient-31" x1="0" y1="38.72" x2="0" y2="38.72" xlink:href="#linear-gradient-5"/><linearGradient id="linear-gradient-32" x1="53" y1="28.5" x2="113.03" y2="28.5" gradientUnits="userSpaceOnUse"><stop offset="0" stop-color="gray"/><stop offset="0.01" stop-color="#8a8a8a"/><stop offset="0.06" stop-color="#acabaa"/><stop offset="0.1" stop-color="#c6c5c4"/><stop offset="0.15" stop-color="#d9d7d6"/><stop offset="0.19" stop-color="#e4e2e0"/><stop offset="0.25" stop-color="#e8e6e4"/><stop offset="0.58" stop-color="#e6e4e2"/><stop offset="0.7" stop-color="#dfdedc"/><stop offset="0.79" stop-color="#d4d2d0"/><stop offset="0.86" stop-color="#c3c1c0"/><stop offset="0.92" stop-color="#adacab"/><stop offset="0.97" stop-color="#929291"/><stop offset="1" stop-color="gray"/></linearGradient></defs><title>uw-logo1</title><path class="cls-1" d="M0,43.55V80H20.94c19-.62,27.56-5.1,30-6.65h0a7.91,7.91,0,0,0,.74-.52h0c5.89-3.92,16.42-6.53,28.43-6.53,9,0,11.89,3.35,17.9,5.73l5,7c6.26-8.55,27.7-23.72,52.85-23.72,15.39,0,29.29,2.35,39.2,6.14,1.24.48,2.42,1,3.53,1.49h0l1.85.92C227.39,77.1,240,80,240,80V0H0" transform="translate(0 0)"/><path class="cls-2" d="M80.09,66.26c-12,0-22.54,2.61-28.42,6.53h0a7.91,7.91,0,0,1-.74.52h0c-2.43,1.55-11,6-30,6.66-2.77.09-5.75.09-9,0H0V95c13.39,0,28.91,0,44.39-.18,23.42-.23,39.14-8,48.4-14.81a50.58,50.58,0,0,0,10.46-9.87C97.25,67.72,89.08,66.26,80.09,66.26Z" transform="translate(0 0)"/><path class="cls-3" d="M88,81c-9.27,6.78-20.58,11.77-44,12-15.48.15-30.61,2-44,2v25H240V80s-12.61-2.87-39.55-16.15l-1.85-.92h0c-1.11-.52-2.29-1-3.53-1.49-9.91-3.79-23.81-6.15-39.2-6.15C130.7,55.25,114,61,103.28,70.11Z" transform="translate(0 0)"/><polygon class="cls-4" points="207.78 87.87 203.08 87.87 204.5 32.9 206.58 32.9 207.78 87.87"/><path class="cls-5" d="M211.1,33.15,204.22,33a.8.8,0,0,1-.77-.66L203,29.86a.79.79,0,0,1,.88-.94l5.53.66a.73.73,0,0,1,.34.12l1.7,1.1a.77.77,0,0,1,.36.59l.1.88A.8.8,0,0,1,211.1,33.15Z" transform="translate(0 0)"/><path class="cls-6" d="M216,64,211.38,32.5l-1.5.32a72,72,0,0,1-.11,7.35L215,63.5Z" transform="translate(0 0)"/><path class="cls-7" d="M179.89,20.94l29.89,11,.44-1.47s-5-1.8-5.85-4.31l-23.56-5.85Z" transform="translate(0 0)"/><path class="cls-8" d="M231.46,7,210.2,30.74l1.21,1s2.68-2.44,5.71-4.63l14.54-19Z" transform="translate(0 0)"/><polygon class="cls-9" points="165.33 62.91 162.65 62.91 163.46 31.65 164.64 31.65 165.33 62.91"/><path class="cls-10" d="M167.21,31.79l-3.91-.07a.46.46,0,0,1-.44-.37l-.26-1.43a.47.47,0,0,1,.51-.54l3.14.38a.4.4,0,0,1,.19.07l1,.62a.45.45,0,0,1,.21.34l0,.5A.45.45,0,0,1,167.21,31.79Z" transform="translate(0 0)"/><path class="cls-11" d="M170,49.36l-2.63-17.94-.85.18a41.69,41.69,0,0,1-.06,4.18l3,13.28Z" transform="translate(0 0)"/><path class="cls-12" d="M149.46,24.84l17,6.29.25-.84s-2.85-1-3.32-2.45L150,24.51Z" transform="translate(0 0)"/><path class="cls-13" d="M178.8,16.92l-12.1,13.5.69.54a40.08,40.08,0,0,1,3.25-2.63l8.27-10.8Z" transform="translate(0 0)"/><polygon class="cls-14" points="124.22 67.91 121.9 67.91 122.6 40.8 123.63 40.8 124.22 67.91"/><path class="cls-15" d="M125.85,40.93l-3.39-.06a.41.41,0,0,1-.38-.33l-.22-1.24a.39.39,0,0,1,.43-.46l2.73.32a.49.49,0,0,1,.17.06l.84.54a.42.42,0,0,1,.18.29l0,.44A.39.39,0,0,1,125.85,40.93Z" transform="translate(0 0)"/><path class="cls-16" d="M128.27,56.16,126,40.61l-.74.15a35.93,35.93,0,0,1,0,3.63l2.6,11.51Z" transform="translate(0 0)"/><path class="cls-17" d="M110.46,34.9l14.74,5.45.22-.73s-2.47-.89-2.88-2.12l-11.62-2.89Z" transform="translate(0 0)"/><path class="cls-18" d="M135.9,28l-10.49,11.7.6.47s1.32-1.2,2.82-2.28L136,28.56Z" transform="translate(0 0)"/><polygon class="cls-19" points="87.02 70.46 85.25 70.46 85.79 49.78 86.57 49.78 87.02 70.46"/><path class="cls-20" d="M88.27,49.88l-2.59-.05a.31.31,0,0,1-.29-.25l-.17-.95a.3.3,0,0,1,.33-.35l2.08.25a.29.29,0,0,1,.13,0l.64.41a.3.3,0,0,1,.14.22l0,.33A.31.31,0,0,1,88.27,49.88Z" transform="translate(0 0)"/><path class="cls-21" d="M90.11,61.49,88.37,49.63l-.56.12a27.27,27.27,0,0,1,0,2.76l2,8.78Z" transform="translate(0 0)"/><path class="cls-22" d="M76.53,45.28l11.24,4.15.17-.55s-1.89-.68-2.2-1.62l-8.87-2.2Z" transform="translate(0 0)"/><path class="cls-23" d="M95.93,40l-8,8.93.45.36s1-.92,2.15-1.75L96,40.44Z" transform="translate(0 0)"/><path class="cls-24" d="M44.46,120" transform="translate(0 0)"/><polyline class="cls-25" points="36.29 120 37.85 60 43.14 60 44.46 120"/><path class="cls-26" d="M36.29,120" transform="translate(0 0)"/><path class="cls-27" d="M54.64,60.66l-17.49-.32a2,2,0,0,1-2-1.67L34,52.26a2,2,0,0,1,2.24-2.39l14.08,1.68a2.17,2.17,0,0,1,.86.31l4.34,2.8a2,2,0,0,1,.93,1.5l.23,2.25A2,2,0,0,1,54.64,60.66Z" transform="translate(0 0)"/><path class="cls-28" d="M64.28,120,55.36,59l-3.83.8a184.13,184.13,0,0,1-.27,18.72L60.62,120" transform="translate(0 0)"/><path class="cls-29" d="M64.28,120" transform="translate(0 0)"/><path class="cls-30" d="M60.62,120" transform="translate(0 0)"/><path class="cls-31" d="M0,33.64" transform="translate(0 0)"/><path class="cls-32" d="M0,38.72l51.28,19A4.72,4.72,0,0,1,51,56c0-2,1.41-2.07,1.41-2.07s-12.77-4.59-14.9-11L0,33.64" transform="translate(0 0)"/><path class="cls-33" d="M0,38.72" transform="translate(0 0)"/><path class="cls-34" d="M101.18,0,53,54a3.54,3.54,0,0,1,3,3A125.1,125.1,0,0,1,70,45.16L104.56,0" transform="translate(0 0)"/></svg>