<?xml version="1.0" encoding="utf-8"?>
<!-- Generator: Adobe Illustrator 23.0.2, SVG Export Plug-In . SVG Version: 6.00 Build 0)  -->
<svg version="1.1" id="Level_1" xmlns="http://www.w3.org/2000/svg" xmlns:xlink="http://www.w3.org/1999/xlink" x="0px" y="0px"
	 viewBox="0 0 910 1632" style="enable-background:new 0 0 910 1632;" xml:space="preserve">
<style type="text/css">
	.st0{fill:#BCE75D;}
	.st1{fill:#AEE239;}
	.st2{fill:#9FCE34;}
	.st3{fill:#8FB92F;}
	.st4{fill:#00A8C6;}
	.st5{fill:#CBEC81;}
	.st6{fill:#FF9F1C;}
	.st7{fill:#40C0CB;}
	.st8{fill:#FE4A49;}
	.st9{fill:#8FBE00;}
	.st10{fill:#008AA3;}
	.st11{fill:#006B7F;}
	.st12{fill:#2EB7D0;}
	.st13{fill:#8BD7E5;}
	.st14{fill:#FFFFFF;}
	.st15{font-family:'ArialMT';}
	.st16{font-size:27px;}
	.st17{font-size:48px;}
	.st18{font-size:36px;}
	.st19{fill:#FAF4EB;stroke:#000000;stroke-miterlimit:10;}
	.st20{fill:#F9F2E7;stroke:#000000;stroke-miterlimit:10;}
	.st21{fill:#CCC7BE;stroke:#000000;stroke-miterlimit:10;}
	.st22{fill:#9F9B93;stroke:#000000;stroke-miterlimit:10;}
	.st23{fill:#F9F8F7;stroke:#000000;stroke-miterlimit:10;}
	.st24{fill:#D0D0D0;stroke:#000000;stroke-miterlimit:10;}
	.st25{fill:#8B8B8B;stroke:#000000;stroke-miterlimit:10;}
	.st26{fill:#5C5C5C;stroke:#000000;stroke-miterlimit:10;}
	.st27{fill:#454545;stroke:#000000;stroke-miterlimit:10;}
	.st28{fill:#F9F9F9;stroke:#000000;stroke-miterlimit:10;}
</style>
<rect x="206.2" y="355.2" class="st0" width="155" height="155"/>
<rect x="378.2" y="330.2" class="st1" width="180" height="180"/>
<rect x="575.3" y="355.2" class="st2" width="155" height="155"/>
<rect x="747.3" y="385.2" class="st3" width="125" height="125"/>
<rect x="378.2" y="110.5" class="st4" width="180" height="180"/>
<rect x="64.2" y="385.2" class="st5" width="125" height="125"/>
<rect x="686.6" y="1262.8" class="st6" width="180" height="180"/>
<rect x="257.8" y="1262.8" class="st7" width="180" height="180"/>
<rect x="472.2" y="1262.8" class="st8" width="180" height="180"/>
<rect x="43.4" y="1262.8" class="st9" width="180" height="180"/>
<rect x="575.3" y="135.2" class="st10" width="155" height="155"/>
<rect x="747.3" y="166.5" class="st11" width="125" height="125"/>
<rect x="206.2" y="135.2" class="st12" width="155" height="155"/>
<rect x="66" y="167.4" class="st13" width="123.1" height="123.1"/>
<text id="_x23_00A8C6_5_" transform="matrix(1 0 0 1 397.7115 207.728)" class="st14 st15 st16">Pacific Blue</text>
<text transform="matrix(1 0 0 1 39.962 63.9995)" class="st15 st17">Fő színek és árnyalatok</text>
<text transform="matrix(1 0 0 1 39.9625 606.6522)" class="st15 st17">Másodlagos szín és árnyalatok</text>
<text transform="matrix(1 0 0 1 390.2031 427.3613)" class="st14 st15 st16">Green Lizard</text>
<text transform="matrix(1 0 0 1 402.8688 501.1598)" class="st14 st15 st18">#AEE239</text>
<rect x="206.2" y="703.8" class="st19" width="155" height="155"/>
<rect x="378.2" y="678.8" class="st20" width="180" height="180"/>
<rect x="575.3" y="703.8" class="st21" width="155" height="155"/>
<rect x="747.3" y="733.8" class="st22" width="125" height="125"/>
<rect x="64.2" y="733.8" class="st23" width="125" height="125"/>
<text transform="matrix(1 0 0 1 435.2129 775.9929)" class="st15 st16">Linen</text>
<text transform="matrix(1 0 0 1 405.2091 849.7914)" class="st15 st18">#F9F2E7</text>
<rect x="206.2" y="928.1" class="st24" width="155" height="155"/>
<rect x="378.2" y="903.1" class="st25" width="180" height="180"/>
<rect x="575.3" y="928.1" class="st26" width="155" height="155"/>
<rect x="747.3" y="958.1" class="st27" width="125" height="125"/>
<rect x="64.2" y="958.1" class="st28" width="125" height="125"/>
<text transform="matrix(1 0 0 1 435.2129 1000.3297)" class="st15 st16">Gray</text>
<text transform="matrix(1 0 0 1 402.3292 1074.1282)" class="st15 st18">#8B8B8B</text>
<text transform="matrix(1 0 0 1 393.1846 278.8373)" class="st14 st15 st18">#00A8C6</text>
<text transform="matrix(1 0 0 1 189.1701 1182.4648)" class="st15 st18">Másodlagos és                         segéd színek</text>
</svg>
