<svg id="Layer_1" data-name="Layer 1" xmlns="http://www.w3.org/2000/svg" viewBox="0 0 427.79 377.2"><title>icon2</title><g id="Layer_1-2" data-name="Layer 1-2"><path d="M82.82,196c-.15-2.75-.25-5.51-.25-8.3q0-6.63.61-13.14h80.21v-35H90.88a154.28,154.28,0,0,1,12.69-26.93q21-35.52,59.2-56.27T243.21,35.6q33.94,0,69.71,15.26t65.79,44.8L406.54,69.3Q368.22,33,327.93,16.48A223.74,223.74,0,0,0,242,0Q185.62,0,140.92,24.78A182.29,182.29,0,0,0,70.61,93.51,187.15,187.15,0,0,0,51.29,139.6H.39v35H45.47c-.32,4.58-.5,9.2-.5,13.88,0,2.54.06,5.06.15,7.56H0v34.67H49.56q9.72,43.1,40.09,78.62,58.1,67.88,157.72,67.87,82,0,131-48.95T427.79,196ZM342.09,311.77Q303.77,343,248.34,343q-45.66,0-84-20.88t-60-57.35A156.45,156.45,0,0,1,89,230.71H387.5Q380.42,280.53,342.09,311.77Z" transform="translate(0 0)"/></g></svg>